# xmcd CD database file
#
# Track frame offsets:
#	150
#	18704
#	35716
#	57569
#	69035
#	82650
#	99297
#	117791
#	128995
#	151649
#	169405
#
# Disc length: 2842 seconds
#
# Revision: 0
# Processed by: cddbd v1.5.1PL0 Copyright (c) Steve Scherf et al.
# Submitted via: CDex 1.51
#
DISCID=830b180b
DTITLE=Hyacinth House - Hyacinth House
DYEAR=2005
DGENRE=Country
TTITLE0=New day arising
TTITLE1=On a train
TTITLE2=O old my love
TTITLE3=The swallow's eye
TTITLE4=Perplexed on blue pills
TTITLE5=Lucky bastards
TTITLE6=Ghost town
TTITLE7=On top of the world
TTITLE8=Sing your soul
TTITLE9=Merely John gospel
TTITLE10=All whispers in the end
EXTD=YEAR: 2005
EXTT0=
EXTT1=
EXTT2=
EXTT3=
EXTT4=
EXTT5=
EXTT6=
EXTT7=
EXTT8=
EXTT9=
EXTT10=
PLAYORDER=
